<?xml version="1.0" encoding="UTF-8"?>
<svg version="1.1" xmlns="http://www.w3.org/2000/svg" width="300" height="300">
<path d="M0 0 C1.24626803 -0.00668677 1.24626803 -0.00668677 2.51771319 -0.01350862 C3.87907289 -0.01323207 3.87907289 -0.01323207 5.2679348 -0.01294994 C6.2361823 -0.01662663 7.20442981 -0.02030332 8.20201814 -0.02409142 C11.45530877 -0.03512838 14.70856746 -0.03897214 17.96187401 -0.04278088 C20.29103764 -0.04904553 22.62020027 -0.05569233 24.9493618 -0.0626936 C32.60635748 -0.08373658 40.26335337 -0.09409637 47.9203701 -0.10406017 C50.55632983 -0.10810767 53.19228946 -0.11222459 55.82824898 -0.11641026 C66.79324679 -0.13327938 77.75824254 -0.14791389 88.72325134 -0.155159 C91.56744068 -0.15706879 94.41163001 -0.15898914 97.25581932 -0.16094494 C98.31614113 -0.16167055 98.31614113 -0.16167055 99.39788358 -0.16241082 C110.84314209 -0.17070715 122.28829595 -0.1960381 133.73350878 -0.22852562 C145.49259484 -0.26163106 157.25162777 -0.27961092 169.01076066 -0.28280324 C175.60962312 -0.2851536 182.20832016 -0.29411261 188.80713844 -0.31926441 C195.01729319 -0.34255221 201.22717366 -0.34677527 207.43736076 -0.33650303 C209.71332906 -0.33600773 211.98931089 -0.34232625 214.26523781 -0.35605907 C217.37974502 -0.37379628 220.49326988 -0.36666221 223.60777855 -0.35352612 C224.50196735 -0.36449536 225.39615615 -0.37546461 226.31744158 -0.38676625 C236.42141833 -0.28434218 245.05985927 3.71519762 252.4438076 10.57172108 C258.77781443 17.40578108 263.92901905 24.7032433 263.95302868 34.31541348 C263.95748652 35.14625883 263.96194437 35.97710418 263.9665373 36.83312666 C263.96626075 38.19448636 263.96626075 38.19448636 263.96597862 39.58334827 C263.96965531 40.55159578 263.973332 41.51984328 263.9771201 42.51743162 C263.98815706 45.77072225 263.99200082 49.02398093 263.99580956 52.27728748 C264.00207421 54.60645111 264.00872101 56.93561374 264.01572227 59.26477528 C264.03676526 66.92177096 264.04712505 74.57876685 264.05708885 82.23578358 C264.06113635 84.87174331 264.06525327 87.50770294 264.06943893 90.14366245 C264.08630805 101.10866027 264.10094256 112.07365601 264.10818768 123.03866482 C264.11009747 125.88285416 264.11201782 128.72704349 264.11397362 131.5712328 C264.11445736 132.278114 264.1149411 132.98499521 264.1154395 133.71329705 C264.12373583 145.15855556 264.14906677 156.60370942 264.1815543 168.04892226 C264.21465974 179.80800831 264.2326396 191.56704125 264.23583192 203.32617414 C264.23818228 209.9250366 264.24714129 216.52373363 264.27229309 223.12255192 C264.29558089 229.33270666 264.29980395 235.54258714 264.28953171 241.75277424 C264.28903641 244.02874253 264.29535493 246.30472436 264.30908775 248.58065128 C264.32682496 251.69515849 264.31969089 254.80868336 264.30655479 257.92319202 C264.32300866 259.26447523 264.32300866 259.26447523 264.33979493 260.63285506 C264.23737086 270.7368318 260.23783105 279.37527274 253.3813076 286.75922108 C246.5472476 293.09322791 239.24978538 298.24443253 229.6376152 298.26844215 C228.39134718 298.27512892 228.39134718 298.27512892 227.11990201 298.28195077 C225.75854232 298.28167423 225.75854232 298.28167423 224.3696804 298.2813921 C222.91730915 298.28690713 222.91730915 298.28690713 221.43559706 298.29253358 C218.18230643 298.30357054 214.92904775 298.3074143 211.6757412 298.31122303 C209.34657757 298.31748768 207.01741494 298.32413449 204.6882534 298.33113575 C197.03125772 298.35217873 189.37426183 298.36253852 181.7172451 298.37250233 C179.08128537 298.37654983 176.44532574 298.38066675 173.80936623 298.38485241 C162.84436841 298.40172153 151.87937267 298.41635604 140.91436386 298.42360115 C138.07017452 298.42551094 135.22598519 298.42743129 132.38179588 298.42938709 C131.32147408 298.4301127 131.32147408 298.4301127 130.23973162 298.43085297 C118.79447312 298.4391493 107.34931926 298.46448025 95.90410642 298.49696777 C84.14502037 298.53007321 72.38598743 298.54805307 60.62685454 298.55124539 C54.02799208 298.55359575 47.42929505 298.56255477 40.83047676 298.58770657 C34.62032202 298.61099437 28.41044154 298.61521742 22.20025444 298.60494518 C19.92428614 298.60444989 17.64830431 298.6107684 15.3723774 298.62450123 C12.25787019 298.64223844 9.14434532 298.63510437 6.02983665 298.62196827 C4.68855345 298.63842214 4.68855345 298.63842214 3.32017362 298.65520841 C-6.78380312 298.55278434 -15.42224407 294.55324453 -22.8061924 287.69672108 C-29.14019923 280.86266108 -34.29140385 273.56519886 -34.31541348 263.95302868 C-34.31987132 263.12218333 -34.32432916 262.29133797 -34.32892209 261.43531549 C-34.32873773 260.52774236 -34.32855337 259.62016923 -34.32836342 258.68509388 C-34.33204011 257.71684638 -34.33571679 256.74859887 -34.3395049 255.75101054 C-34.35054186 252.49771991 -34.35438562 249.24446122 -34.35819435 245.99115467 C-34.36445901 243.66199104 -34.37110581 241.33282841 -34.37810707 239.00366688 C-34.39915005 231.34667119 -34.40950984 223.6896753 -34.41947365 216.03265858 C-34.42352115 213.39669884 -34.42763807 210.76073922 -34.43182373 208.1247797 C-34.44869285 197.15978189 -34.46332736 186.19478614 -34.47057247 175.22977734 C-34.47248226 172.385588 -34.47440261 169.54139867 -34.47635841 166.69720936 C-34.47684215 165.99032815 -34.47732589 165.28344695 -34.47782429 164.5551451 C-34.48612062 153.10988659 -34.51145157 141.66473273 -34.54393909 130.2195199 C-34.57704453 118.46043384 -34.59502439 106.7014009 -34.59821671 94.94226801 C-34.60056708 88.34340556 -34.60952609 81.74470852 -34.63467789 75.14589024 C-34.65796569 68.93573549 -34.66218874 62.72585502 -34.6519165 56.51566792 C-34.65142121 54.23969962 -34.65773972 51.96371779 -34.67147255 49.68779087 C-34.68920976 46.57328366 -34.68207569 43.4597588 -34.66893959 40.34525013 C-34.67990884 39.45106133 -34.69087808 38.55687253 -34.70217973 37.6355871 C-34.59975566 27.53161035 -30.60021585 18.89316941 -23.7436924 11.50922108 C-16.9096324 5.17521425 -9.61217018 0.02400963 0 0 Z " fill="#989BBC" transform="translate(35.18119239807129,0.865778923034668)"/>
<path d="M0 0 C4.03051129 1.93249337 7.9072584 4.12810582 11.79370117 6.33203125 C13.22089918 7.11901919 14.64930039 7.90382882 16.07885742 8.68652344 C18.91991077 10.24637901 21.75375698 11.81812966 24.58129883 13.40234375 C28.81924827 15.77601747 33.08540651 18.09586335 37.35668945 20.40893555 C39.97688798 21.8296925 42.59100052 23.26110521 45.20385742 24.6953125 C48.91219718 26.72824373 52.62911867 28.74436948 56.35229492 30.75 C67.4915742 36.75173972 78.56979183 42.84205988 89.5637207 49.10668945 C95.72616086 52.61365062 101.93418514 55.99398873 108.25073242 59.21484375 C110.48120117 60.58203125 110.48120117 60.58203125 112.48120117 63.58203125 C112.68563095 66.18793357 112.77491995 68.68786339 112.77172852 71.29467773 C112.77844574 72.07872986 112.78516296 72.86278198 112.79208374 73.67059326 C112.81109625 76.2648348 112.81498943 78.85881812 112.81713867 81.453125 C112.82356391 83.25529589 112.83029206 85.05746572 112.83731079 86.8596344 C112.84929138 90.63829976 112.85299077 94.41687363 112.85180664 98.19555664 C112.85160331 103.03917151 112.87891668 107.88220058 112.91335106 112.72567654 C112.9355796 116.44801024 112.93964544 120.170202 112.93858719 123.89259529 C112.94094882 125.67839644 112.94980392 127.46420117 112.96525192 129.24993706 C112.98483237 131.74703994 112.97910611 134.24286713 112.96704102 136.73999023 C112.97828003 137.47830582 112.98951904 138.2166214 113.00109863 138.97731018 C112.95933603 142.37602394 112.72860372 144.25174879 110.66567993 147.00575256 C107.52781609 149.26997595 105.3354417 149.6496495 101.48120117 149.58203125 C98.06669887 146.9776703 96.64193294 145.48360164 95.87992859 141.20939636 C95.89658318 139.28079521 95.89658318 139.28079521 95.91357422 137.31323242 C95.91247902 136.24412125 95.91247902 136.24412125 95.91136169 135.15341187 C95.91483072 132.80981945 95.9536541 130.46824283 95.99291992 128.125 C96.00225062 126.49547918 96.00936552 124.8659443 96.01435852 123.23640442 C96.03340848 118.95676646 96.08249101 114.67798301 96.13787842 110.39868164 C96.18911473 106.02827513 96.21188185 101.65772994 96.23706055 97.28710938 C96.2906126 88.71835876 96.37589997 80.15030144 96.48120117 71.58203125 C95.79493652 71.94554688 95.10867187 72.3090625 94.40161133 72.68359375 C91.30536501 74.32065332 88.20584437 75.95141326 85.10620117 77.58203125 C83.48584961 78.44054687 83.48584961 78.44054687 81.83276367 79.31640625 C80.80151367 79.8578125 79.77026367 80.39921875 78.70776367 80.95703125 C77.75466309 81.45976562 76.8015625 81.9625 75.81958008 82.48046875 C73.48120117 83.58203125 73.48120117 83.58203125 71.48120117 83.58203125 C71.49008362 84.31595093 71.49896606 85.04987061 71.50811768 85.80603027 C71.58853063 92.74946779 71.64930066 99.69283499 71.68844986 106.63661957 C71.70925432 110.20586644 71.73743886 113.77472599 71.78295898 117.34375 C71.82667517 120.79323591 71.85039189 124.24235117 71.86071014 127.6920929 C71.87161122 129.63742307 71.90279583 131.58260577 71.93438721 133.52770996 C71.93643467 141.66431648 71.32061134 147.61829733 65.43041992 153.69921875 C60.85200731 156.62212588 56.09081398 159.1633345 51.29370117 161.70703125 C49.11228541 162.8755068 46.93129875 164.04478377 44.75073242 165.21484375 C43.67903809 165.78879883 42.60734375 166.36275391 41.50317383 166.95410156 C37.47382149 169.12470436 33.47571905 171.34821819 29.48120117 173.58203125 C28.05282136 174.37110389 26.62443579 175.16016612 25.19604492 175.94921875 C21.57954801 177.95358022 18.00023094 180.01697415 14.42260742 182.08984375 C12.29663807 183.29615949 10.17033838 184.50189326 8.04370117 185.70703125 C7.06079102 186.28839844 6.07788086 186.86976563 5.06518555 187.46875 C-1.5399961 191.17050609 -6.94065779 192.93683072 -14.51879883 191.58203125 C-17.67599679 190.53901321 -20.40892162 189.07741011 -23.26879883 187.39453125 C-24.06608398 186.95109375 -24.86336914 186.50765625 -25.68481445 186.05078125 C-28.30962021 184.58379974 -30.91398737 183.08418956 -33.51879883 181.58203125 C-35.40837228 180.51116323 -37.29902226 179.44219281 -39.19067383 178.375 C-42.10949441 176.72742906 -45.02674766 175.0774978 -47.93823242 173.41699219 C-54.19100736 169.8575098 -60.50532496 166.45333545 -66.89379883 163.14453125 C-85.66195271 153.34246179 -85.66195271 153.34246179 -88.51879883 145.58203125 C-89.12851606 140.90898061 -89.12371809 136.2625909 -89.12817383 131.5546875 C-89.14317324 130.19703719 -89.15990407 128.83940502 -89.17828369 127.48179626 C-89.22177306 123.9292207 -89.24191481 120.37689118 -89.25701904 116.82409668 C-89.27665721 113.19052694 -89.31861933 109.55722038 -89.35864258 105.92382812 C-89.43374435 98.80999647 -89.48415656 91.69618444 -89.51879883 84.58203125 C-90.3512915 84.14858398 -91.18378418 83.71513672 -92.04150391 83.26855469 C-95.13736405 81.65091751 -98.22851344 80.02490685 -101.31689453 78.39306641 C-102.65267758 77.68947737 -103.99023227 76.98924095 -105.32958984 76.29248047 C-107.25813404 75.28846303 -109.17991628 74.27243044 -111.10083008 73.25390625 C-112.83683472 72.3427002 -112.83683472 72.3427002 -114.60791016 71.41308594 C-117.94735397 69.3124545 -120.07289505 67.48455402 -120.98754883 63.58203125 C-120.99786133 62.92203125 -121.00817383 62.26203125 -121.01879883 61.58203125 C-121.04973633 60.92203125 -121.08067383 60.26203125 -121.11254883 59.58203125 C-119.97295825 55.74341036 -116.05474206 53.8960568 -112.74584961 51.95727539 C-111.74537598 51.43254639 -110.74490234 50.90781738 -109.71411133 50.3671875 C-108.58569824 49.77043213 -107.45728516 49.17367676 -106.29467773 48.55883789 C-105.70019836 48.2472171 -105.10571899 47.93559631 -104.4932251 47.61453247 C-101.31817714 45.94925906 -98.15268615 44.26604694 -94.98754883 42.58203125 C-94.34862701 42.24232803 -93.7097052 41.90262482 -93.05142212 41.55262756 C-87.35820497 38.51602953 -81.74303725 35.35093274 -76.14379883 32.14453125 C-66.02432317 26.3631285 -55.77377485 20.8495603 -45.46337891 15.41821289 C-39.76813178 12.41346852 -34.10500367 9.3816931 -28.55004883 6.12109375 C-27.65697021 5.60305176 -26.7638916 5.08500977 -25.84375 4.55126953 C-24.24088516 3.61394171 -22.64849845 2.65829532 -21.07080078 1.67919922 C-13.97079883 -2.44566329 -7.70016673 -3.10293266 0 0 Z " fill="#FDFDFD" transform="translate(154.518798828125,55.41796875)"/>
<path d="M0 0 C3.3550213 0.53851237 6.09388774 1.95660542 9.0859375 3.51953125 C10.08729736 4.0407959 11.08865723 4.56206055 12.12036133 5.09912109 C13.19439209 5.66453613 14.26842285 6.22995117 15.375 6.8125 C16.49479248 7.39854004 17.61458496 7.98458008 18.76831055 8.58837891 C26.70346831 12.7553322 34.59055403 17.00544772 42.4453125 21.32177734 C47.71830695 24.2179296 53.0071349 27.08123095 58.31640625 29.91015625 C58.94345963 30.24454712 59.570513 30.57893799 60.21656799 30.92346191 C62.70644835 32.25082204 65.19644617 33.57791588 67.68960571 34.89910889 C74.27835531 38.39068397 80.73908716 41.94655888 87 46 C83.88572775 49.47372196 80.48488106 51.58010354 76.3828125 53.6875 C75.7379892 54.02654358 75.09316589 54.36558716 74.42880249 54.71490479 C73.04789139 55.43999104 71.66523517 56.1617618 70.28100586 56.88049316 C67.36361933 58.39534719 64.45470825 59.92614872 61.54522705 61.45611572 C60.08338057 62.22464162 58.62110018 62.99234273 57.15838623 63.75921631 C51.23971694 66.86392916 45.35922678 70.03442997 39.5 73.25 C37.78781796 74.18890702 36.07557829 75.12770897 34.36328125 76.06640625 C33.50943848 76.53449707 32.6555957 77.00258789 31.77587891 77.48486328 C28.64083124 79.19604233 25.49880852 80.89394634 22.35546875 82.58984375 C21.24429688 83.18958008 20.133125 83.78931641 18.98828125 84.40722656 C16.82625966 85.57331099 14.66352511 86.73807473 12.5 87.90136719 C11.53449219 88.4224707 10.56898438 88.94357422 9.57421875 89.48046875 C8.71401123 89.94348389 7.85380371 90.40649902 6.9675293 90.88354492 C5.06160714 91.84971888 5.06160714 91.84971888 4 93 C-3.22784162 92.87953597 -8.82051661 89.1951987 -15 85.75 C-16.14919922 85.12029297 -17.29839844 84.49058594 -18.48242188 83.84179688 C-26.79218601 79.28200079 -35.04165746 74.61308478 -43.27514648 69.91723633 C-51.90020079 65.01182553 -60.63340526 60.31733597 -69.3984375 55.66796875 C-74.43562628 52.98314086 -79.34060033 50.30276337 -84 47 C-81.35217856 43.9084096 -78.0364916 42.25154894 -74.48046875 40.41015625 C-73.83432114 40.06974304 -73.18817352 39.72932983 -72.52244568 39.37860107 C-71.13521242 38.64842711 -69.74668295 37.92071147 -68.35699463 37.19522095 C-64.69191548 35.28163616 -61.03624231 33.35020425 -57.37890625 31.421875 C-56.65165344 31.03912918 -55.92440063 30.65638336 -55.17510986 30.26203918 C-49.29569904 27.16535356 -43.4503381 24.00981625 -37.625 20.8125 C-31.73288055 17.57995514 -25.83206517 14.36520195 -19.91015625 11.1875 C-19.30862732 10.86456467 -18.70709839 10.54162933 -18.08734131 10.20890808 C-15.12997165 8.62166102 -12.17144964 7.03664249 -9.21142578 5.4543457 C-8.15552246 4.88804443 -7.09961914 4.32174316 -6.01171875 3.73828125 C-5.06772217 3.23337158 -4.12372559 2.72846191 -3.15112305 2.20825195 C-1.08526143 1.17533703 -1.08526143 1.17533703 0 0 Z " fill="#999CBC" transform="translate(144,71)"/>
<path d="M0 0 C4.13220865 1.37740288 7.2247935 2.51193297 10.921875 4.546875 C12.31853394 5.31016113 12.31853394 5.31016113 13.7434082 6.08886719 C15.23167114 6.91112793 15.23167114 6.91112793 16.75 7.75 C18.8839271 8.91700955 21.01804903 10.08366291 23.15234375 11.25 C24.26464355 11.85972656 25.37694336 12.46945313 26.52294922 13.09765625 C32.44162146 16.3358457 38.3759673 19.54470482 44.3125 22.75 C45.43301758 23.35811523 46.55353516 23.96623047 47.70800781 24.59277344 C48.74924805 25.15512695 49.79048828 25.71748047 50.86328125 26.296875 C51.78407471 26.79541992 52.70486816 27.29396484 53.65356445 27.80761719 C59.0163033 30.53278798 64.09610846 30.69411799 70 30 C73.62271079 28.71139878 76.77978814 26.86132674 80.0625 24.875 C81.96781152 23.77831584 83.87410716 22.68334012 85.78125 21.58984375 C86.78027344 21.00831543 87.77929688 20.42678711 88.80859375 19.82763672 C94.49202977 16.5728783 100.28376424 13.5185747 106.0625 10.4375 C108.24177779 9.27119714 110.42022119 8.10333329 112.59765625 6.93359375 C113.52070557 6.43915771 114.44375488 5.94472168 115.39477539 5.43530273 C118.03508711 4.02205829 118.03508711 4.02205829 120.58764648 2.31665039 C123 1 123 1 127 1 C127 15.85 127 30.7 127 46 C115.00621484 52.9130845 103.00398503 59.78420991 90.75390625 66.23583984 C86.02222663 68.74035096 81.45852493 71.29171916 77.04296875 74.32421875 C66.48350972 81.42828138 66.48350972 81.42828138 60.28515625 80.359375 C56.74701694 78.85971986 53.6357267 76.75861994 50.46679688 74.60400391 C46.54606817 72.05459896 42.42526064 69.88687814 38.31738281 67.65625 C25.42984867 60.64692522 12.719971 53.30721738 0 46 C0 30.82 0 15.64 0 0 Z " fill="#999BBC" transform="translate(82,150)"/>
<path d="M0 0 C7.26 0 14.52 0 22 0 C22 7.92 22 15.84 22 24 C34.54 24 47.08 24 60 24 C60 28.95 60 33.9 60 39 C47.46 39 34.92 39 22 39 C22.03958834 46.52432774 22.03958834 46.52432774 22.09008789 54.04858398 C22.09258545 54.98001221 22.09508301 55.91144043 22.09765625 56.87109375 C22.10289307 57.82943115 22.10812988 58.78776855 22.11352539 59.77514648 C22 62 22 62 21 63 C19.43827255 63.08685603 17.87270656 63.10702219 16.30859375 63.09765625 C15.45837646 63.09515869 14.60815918 63.09266113 13.73217773 63.09008789 C12.64493408 63.08098389 11.55769043 63.07187988 10.4375 63.0625 C6.993125 63.041875 3.54875 63.02125 0 63 C0 55.08 0 47.16 0 39 C-12.54 39 -25.08 39 -38 39 C-38 34.05 -38 29.1 -38 24 C-25.46 24 -12.92 24 0 24 C0 16.08 0 8.16 0 0 Z " fill="#F8F8FA" transform="translate(134,84)"/>
</svg>
